<?xml version="1.0" encoding="UTF-8"?>
<svg id="Calque_2" data-name="Calque 2" xmlns="http://www.w3.org/2000/svg" viewBox="0 0 100 100">
  <defs>
    <style>
      .cls-1 {
        fill: #d00000;
      }

      .cls-1, .cls-2, .cls-3, .cls-4, .cls-5 {
        stroke-width: 0px;
      }

      .cls-2 {
        fill: none;
      }

      .cls-3 {
        fill: #fff;
      }

      .cls-4 {
        fill: #e12229;
      }

      .cls-5 {
        fill: #ee4c2c;
      }
    </style>
  </defs>
  <g id="Mode_Isolation" data-name="Mode Isolation">
    <g>
      <rect class="cls-3" width="100" height="100"/>
      <g id="group">
        <path id="Path" class="cls-5" d="M84.64,15.79l-3.09,3.09c5.06,5.06,5.06,13.21,0,18.17-5.06,5.06-13.21,5.06-18.17,0-5.06-5.06-5.06-13.21,0-18.17l8.01-8.01,1.12-1.12V3.7l-12.08,12.08c-6.75,6.75-6.75,17.61,0,24.36,6.75,6.75,17.61,6.75,24.22,0,6.75-6.79,6.75-17.61,0-24.36Z"/>
        <path id="Path-1" class="cls-5" d="M80.85,12.79c0,1.24-1.01,2.25-2.25,2.25s-2.25-1.01-2.25-2.25,1.01-2.25,2.25-2.25,2.25,1.01,2.25,2.25Z"/>
      </g>
      <g>
        <g>
          <path class="cls-2" d="M52.97,86.43c-4.89,1.33-6.52,1.26-7.02,1.15.37-.75,2.11-2.39,3.93-3.69.43-.31.54-.91.24-1.35-.3-.44-.89-.55-1.33-.24-2.58,1.83-5.48,4.39-4.67,6.16.31.67.95,1.12,2.5,1.12,1.4,0,3.55-.37,6.85-1.27.51-.14.81-.67.67-1.19-.13-.52-.66-.83-1.17-.69Z"/>
          <g>
            <path class="cls-4" d="M68.15,44.5c-.34,0-.63-.17-.87-.5-.3-.42-.64-.57-1.3-.57-.2,0-.4.01-.59.03-.22.01-.42.03-.62.03-.32,0-.79-.03-1.23-.27-1.36-.77-1.86-2.52-1.11-3.9.5-.92,1.46-1.5,2.49-1.5.48,0,.96.12,1.38.36,1.06.59,2.99,4.78,2.77,5.62l-.18.7-.74.02Z"/>
            <path class="cls-3" d="M64.93,38.75c.31,0,.63.08.92.24.85.48,2.51,4.58,2.3,4.58-.02,0-.05-.03-.1-.11-.58-.82-1.33-.97-2.06-.97-.43,0-.84.05-1.21.05-.29,0-.56-.03-.77-.15-.92-.52-1.26-1.7-.75-2.64.35-.64,1-1.01,1.67-1.01M64.93,36.87c-1.38,0-2.66.76-3.32,1.99-.99,1.83-.33,4.15,1.48,5.16.62.35,1.26.39,1.68.39.21,0,.44-.01.68-.03.17-.01.35-.02.53-.02.41,0,.45.05.53.17.55.79,1.26.9,1.64.9h1.45l.38-1.41c.11-.43.24-.93-.94-3.48-1.06-2.29-1.74-2.9-2.27-3.2-.56-.32-1.2-.48-1.84-.48h0Z"/>
          </g>
          <path class="cls-4" d="M62.06,75.3c-.39-.47-.34-1.18.12-1.58.46-.4,1.16-.35,1.55.13,5.79,6.92,15.18,8.77,24.52,4.83.95-2.66,1.42-5.45,1.49-8.18,0-7.41-3.53-14.26-9.52-18.38-2.78-1.91-9.2-4.45-17.62-3.04-6.19,1.04-12.61,5.82-15.12,7.97-1.51,1.29-19.5,18.68-27,15.22-5.07-2.35,3.99-10.88-.17-18.68-.11-.21-.41-.23-.55-.04-2.12,2.91-4.18,6.41-7,4.84-1.26-.7-2.39-2.94-3.26-4.36-.18-.28-.61-.14-.6.19.32,9.8,4.97,17.01,8.71,21.57,6.47,7.9,17.8,17.09,36.12,18.95,18.88,1.75,28.93-4.73,33.3-13.21-2.84.96-5.67,1.44-8.4,1.44-6.45,0-12.34-2.63-16.56-7.67ZM53.46,88.31c-3.3.9-5.45,1.27-6.85,1.27-1.55,0-2.19-.45-2.5-1.12-.81-1.77,2.1-4.32,4.67-6.16.43-.3,1.03-.2,1.33.24.3.44.19,1.05-.24,1.35-1.83,1.3-3.56,2.94-3.93,3.69.5.11,2.14.18,7.02-1.15.51-.14,1.03.17,1.17.69.14.52-.16,1.05-.67,1.19Z"/>
          <g>
            <path class="cls-4" d="M70.65,47.4c-.36,0-.83-.21-1-.82-.32-1.15.43-5.99,2.83-7.43.42-.25.9-.39,1.39-.39,1.04,0,2,.58,2.5,1.51.75,1.38.25,3.13-1.11,3.9-.15.09-.33.18-.53.28-.93.49-2.34,1.22-3.2,2.45-.3.42-.68.49-.88.49h0Z"/>
            <path class="cls-3" d="M73.88,39.71c.67,0,1.33.38,1.67,1.02.51.94.17,2.12-.75,2.64s-2.86,1.33-4.04,3.01c-.04.06-.08.09-.11.09-.43,0,.1-5.18,2.31-6.51.29-.17.6-.25.91-.25M73.88,37.83c-.66,0-1.31.18-1.88.52-2.91,1.74-3.65,7.04-3.25,8.48.25.9,1.01,1.5,1.9,1.5.65,0,1.25-.32,1.64-.89.73-1.04,1.97-1.69,2.87-2.16.21-.11.39-.21.55-.29,1.81-1.02,2.47-3.33,1.48-5.17-.67-1.23-1.94-2-3.32-2h0Z"/>
          </g>
          <g>
            <path class="cls-4" d="M70.32,38.97c-.19,0-.68-.07-.96-.67-.34-.73-.85-3.85.48-5.42.42-.5,1.03-.78,1.67-.78.54,0,1.05.2,1.44.56.86.8.91,2.2.09,3.11-.08.09-.17.19-.28.3-.48.5-1.19,1.26-1.48,2.17-.17.54-.62.73-.96.73h0Z"/>
            <path class="cls-3" d="M71.52,33.04c.29,0,.58.1.8.31.49.46.51,1.26.03,1.8s-1.54,1.5-1.95,2.81c-.02.06-.04.08-.06.08-.28,0-.88-3.23.23-4.55.25-.3.61-.45.96-.45M71.52,31.16c-.92,0-1.79.41-2.39,1.11-1.6,1.89-1.08,5.4-.61,6.42.52,1.13,1.52,1.22,1.81,1.22.85,0,1.58-.54,1.85-1.39.22-.7.83-1.34,1.27-1.81.11-.12.21-.23.3-.32,1.15-1.29,1.08-3.27-.15-4.42-.56-.52-1.3-.81-2.07-.81h0Z"/>
          </g>
        </g>
        <g>
          <ellipse class="cls-3" cx="75.51" cy="68.45" rx="3.52" ry="3.88"/>
          <ellipse class="cls-4" cx="76.93" cy="69.31" rx="2.38" ry="2.42"/>
        </g>
      </g>
      <g>
        <path class="cls-3" d="M43.24,43.2s0,0,0,0H11.89s0,0,0,0V11.85s0,0,0,0h31.35s0,0,0,0v31.35h0Z"/>
        <path class="cls-1" d="M42.72,42.68s0,0,0,0H12.41s0,0,0,0V12.37s0,0,0,0h30.31s0,0,0,0v30.31h0Z"/>
        <path class="cls-3" d="M20.68,35.76s.01.05.03.07l.52.52s.05.03.07.03h1.78s.05-.01.07-.03l.52-.52s.03-.05.03-.07v-5.63s.01-.05.03-.07l2.26-2.15s.04-.01.05,0l5.7,8.44s.04.03.06.03h2.52s.05-.02.06-.04l.46-.88s0-.05,0-.07l-6.67-9.66s-.01-.05,0-.06l6.13-6.1s.03-.05.03-.07v-.11s0-.06-.02-.08l-.35-.81s-.04-.04-.06-.04h-2.49s-.05.01-.07.03l-7.62,7.64s-.03.01-.03-.01v-7.01s-.01-.06-.03-.07l-.51-.55s-.05-.03-.07-.03h-1.79s-.05.01-.07.03l-.52.56s-.03.05-.03.07v16.65h0Z"/>
      </g>
    </g>
  </g>
</svg>